<svg xmlns="http://www.w3.org/2000/svg" viewBox="0 0 510.9 646.67"><defs><style>.cls-1{fill:#82ba6f;}.cls-2{fill:#3d4159;}.cls-3{fill:#dde8ed;}.cls-4{fill:#2a2f4f;}.cls-5{fill:#dd3033;}.cls-6{fill:#f74f4f;}.cls-7{fill:#f2f0ec;}.cls-8{fill:#d8d5d0;}.cls-9{fill:#ffe152;}.cls-10{fill:#e8c934;}.cls-11{fill:#eab599;}.cls-12{fill:#f6caae;}.cls-13{fill:#fff;}.cls-14{fill:#eebf00;}.cls-15{fill:#47568c;}.cls-16{fill:#2c3b73;}.cls-17{fill:#61729b;}</style></defs><title>Asset 1</title><g id="Layer_2" data-name="Layer 2"><g id="Layer_1-2" data-name="Layer 1"><path class="cls-1" d="M510.9,391.21c0,141.08-114.37,255.45-255.45,255.45S0,532.3,0,391.21,114.37,135.76,255.45,135.76,510.9,250.13,510.9,391.21Z"/><path class="cls-2" d="M480.29,246.43V505.52H30.62V246.43a41.7,41.7,0,0,1,41.7-41.71H438.58A41.71,41.71,0,0,1,480.29,246.43Z"/><path class="cls-3" d="M449,246.43V474.24H61.89V246.43A10.45,10.45,0,0,1,72.32,236H438.58A10.44,10.44,0,0,1,449,246.43Z"/><path class="cls-4" d="M30.62,481.49H480.29v20.43H30.62Z"/><path class="cls-2" d="M487.74,497.66a255.83,255.83,0,0,1-47.47,69.9H70.64a255.83,255.83,0,0,1-47.47-69.9,35.6,35.6,0,0,1,8.21-1H479.52A35.6,35.6,0,0,1,487.74,497.66Z"/><path class="cls-4" d="M437.43,481h-364a18.35,18.35,0,0,1-18.35-18.35V246.43a17.21,17.21,0,0,1,17.2-17.21H438.58a17.21,17.21,0,0,1,17.2,17.21V462.67A18.35,18.35,0,0,1,437.43,481ZM74.89,467.46H436a6.22,6.22,0,0,0,6.22-6.22V246.43a3.65,3.65,0,0,0-3.65-3.65H72.32a3.65,3.65,0,0,0-3.65,3.65v214.8A6.22,6.22,0,0,0,74.89,467.46Z"/><path class="cls-4" d="M294.62,522.15H216.29A24.18,24.18,0,0,1,192.12,498V496.7H318.79V498A24.18,24.18,0,0,1,294.62,522.15Z"/><path class="cls-4" d="M460.16,544a256.88,256.88,0,0,1-19.89,23.51H70.64A256.88,256.88,0,0,1,50.75,544Z"/><path class="cls-5" d="M364.45,474.24H143.05a83.56,83.56,0,0,1,61.85-78.36c1.3-.34,2.62-.67,3.94-1a86.4,86.4,0,0,1,10.88-1.61q3.38-.26,6.83-.27h54.4a84.05,84.05,0,0,1,17.71,1.88l1,.22c1,.22,1.93.46,2.87.71l.07,0a83.59,83.59,0,0,1,61.86,78.37Z"/><path class="cls-6" d="M364.45,474.24H184.05a83.55,83.55,0,0,1,61.85-78.36c1.3-.34,2.62-.67,3.94-1a86.4,86.4,0,0,1,10.88-1.61q3.38-.26,6.83-.27h13.4a84.05,84.05,0,0,1,17.71,1.88l1,.22c1,.22,1.93.46,2.87.71l.07,0a83.59,83.59,0,0,1,61.86,78.37Z"/><path class="cls-7" d="M302.78,394.93l-.2.95-16.85,78.37h-64l-16.84-78.36-.21-1Z"/><path class="cls-8" d="M253.74,427.24l-37.6,20.9L204.7,394.93l23.36-13.76"/><path class="cls-8" d="M253.74,427.24l37.6,20.9,11.44-53.21-23.36-13.76"/><path class="cls-9" d="M141.47,372.91V247A112.28,112.28,0,1,1,366,247v126"/><path class="cls-10" d="M187.66,251.87c0,44.55,26.09,96.1,40.42,121H141.47V247A112.21,112.21,0,0,1,252.93,134.68C218.41,135.54,187.66,190.92,187.66,251.87Z"/><path class="cls-11" d="M283.55,360.87v36.57a29.8,29.8,0,0,1-59.6,0V360.87Z"/><path class="cls-12" d="M283.55,395.13v2.32a29.8,29.8,0,0,1-21,28.46,29.8,29.8,0,0,1-20.75-24.59q3,.19,6,.18a103.07,103.07,0,0,0,35.73-6.38Z"/><path class="cls-12" d="M172,300.94a27.7,27.7,0,1,1-23.27-27.36A27.71,27.71,0,0,1,172,300.94Z"/><path class="cls-11" d="M172,300.94a27.71,27.71,0,0,1-23.27,27.36,103.63,103.63,0,0,1,0-54.71A27.71,27.71,0,0,1,172,300.94Z"/><path class="cls-11" d="M154.2,300.94a9.9,9.9,0,1,1-9.9-9.91A9.9,9.9,0,0,1,154.2,300.94Z"/><path class="cls-11" d="M324.91,265.55v95.26A102.74,102.74,0,0,1,270.3,388l-.5.08a101.4,101.4,0,0,1-16,1.25,103.1,103.1,0,0,1-103.1-103.1V247a103.45,103.45,0,0,1,1.05-14.81c24.53,17.64,59.7,15.9,82.11-5.28a58.39,58.39,0,0,0,15.49-24.21,68.05,68.05,0,0,0,21.28,42.47A76.08,76.08,0,0,0,324.91,265.55Z"/><path class="cls-12" d="M324.91,265.55v95.26A102.74,102.74,0,0,1,270.3,388l-.5.08a103.12,103.12,0,0,1-87-101.86V247c0-1,0-2.08.05-3.12a64.61,64.61,0,0,0,51-17,58.4,58.4,0,0,0,15.5-24.21,68,68,0,0,0,21.28,42.47A76.08,76.08,0,0,0,324.91,265.55Z"/><path class="cls-11" d="M309.13,277.51a17.13,17.13,0,0,0-34.25,0"/><path class="cls-11" d="M232.64,277.51a17.13,17.13,0,0,0-34.25,0"/><path class="cls-2" d="M227.21,284.8a11.7,11.7,0,1,1-11.7-11.7A11.7,11.7,0,0,1,227.21,284.8Z"/><path class="cls-2" d="M303.7,284.8A11.7,11.7,0,1,1,292,273.1,11.7,11.7,0,0,1,303.7,284.8Z"/><path class="cls-11" d="M265.45,314.24H242.06a5,5,0,1,1,0-10.09h23.39a5,5,0,1,1,0,10.09Z"/><path class="cls-11" d="M253.76,346.17a52.13,52.13,0,0,1-25.14-6.49,4.59,4.59,0,1,1,4.42-8,42.8,42.8,0,0,0,41.44,0,4.59,4.59,0,0,1,4.42,8A52.14,52.14,0,0,1,253.76,346.17Z"/><path class="cls-13" d="M224.83,282.73a5,5,0,1,1-5-5A5,5,0,0,1,224.83,282.73Z"/><path class="cls-13" d="M301.89,282.73a5,5,0,1,1-5-5A5,5,0,0,1,301.89,282.73Z"/><path class="cls-11" d="M323.93,313.28a12.84,12.84,0,1,1-12.84-12.84A12.84,12.84,0,0,1,323.93,313.28Z"/><path class="cls-11" d="M209.26,313.28a12.84,12.84,0,1,1-12.84-12.84A12.84,12.84,0,0,1,209.26,313.28Z"/><path class="cls-4" d="M74.89,467.46H436V481H74.89Z"/><path class="cls-14" d="M473.59,260l-23.12-46.32V118.72a12.25,12.25,0,1,0-24.51,0v94.92L402.77,260a12.24,12.24,0,1,0,21.89,10.95l13.48-27,13.48,27a12.27,12.27,0,0,0,22-10.95Z"/><path class="cls-15" d="M373.74,138.82l-7.58,69.37a13.66,13.66,0,0,1-7.3,10.8c-1.74.86-48.59,22.54-102.16,16.68s-93.93-37.07-95.44-38.29a13.66,13.66,0,0,1-4.79-12.12l7.58-69.37c.77-7,6.54-12.46,13.05-11.75l186.44,20.38C370,125.24,374.51,131.79,373.74,138.82Z"/><path class="cls-16" d="M373.74,138.82l-7.58,69.37a13.66,13.66,0,0,1-7.3,10.8c-1.74.86-48.59,22.54-102.16,16.68L270,114.29l93.64,10.24C370,125.24,374.51,131.79,373.74,138.82Z"/><path class="cls-17" d="M446,99.62,286.77,1.56A13.72,13.72,0,0,0,282.46,0a13.72,13.72,0,0,0-4.53.56L102.08,62a13.64,13.64,0,0,0-2.62,24l158.61,96.24a9.95,9.95,0,0,0,8.84,1l176.43-59.61a13.16,13.16,0,0,0,8.52-11.19A13.44,13.44,0,0,0,446,99.62Z"/><path class="cls-15" d="M451.78,112.38a13.16,13.16,0,0,1-8.52,11.19L266.83,183.18a8.64,8.64,0,0,1-4.53.56L282.39,0a13.72,13.72,0,0,1,4.3,1.52L446,99.62A13.23,13.23,0,0,1,451.78,112.38Z"/></g></g></svg>